<?xml version="1.0" encoding="UTF-8"?>
<svg xmlns="http://www.w3.org/2000/svg" xmlns:xlink="http://www.w3.org/1999/xlink" viewBox="0 0 85 85" width="85px" height="85px">
<defs>
<linearGradient id="linear0" gradientUnits="userSpaceOnUse" x1="98.859383" y1="38.742191" x2="98.859383" y2="51.652691" gradientTransform="matrix(0.497076,0,0,0.497076,0,0)">
<stop offset="0" style="stop-color:rgb(43.921569%,70.980394%,100%);stop-opacity:1;"/>
<stop offset="1" style="stop-color:rgb(16.470589%,51.764709%,100%);stop-opacity:1;"/>
</linearGradient>
<linearGradient id="linear1" gradientUnits="userSpaceOnUse" x1="72.140633" y1="38.742191" x2="72.140633" y2="51.652691" gradientTransform="matrix(0.497076,0,0,0.497076,0,0)">
<stop offset="0" style="stop-color:rgb(43.921569%,70.980394%,100%);stop-opacity:1;"/>
<stop offset="1" style="stop-color:rgb(16.470589%,51.764709%,100%);stop-opacity:1;"/>
</linearGradient>
<linearGradient id="linear2" gradientUnits="userSpaceOnUse" x1="85.5" y1="14.02734" x2="85.5" y2="158.260498" gradientTransform="matrix(0.497076,0,0,0.497076,0,0)">
<stop offset="0" style="stop-color:rgb(0%,48.235294%,100%);stop-opacity:1;"/>
<stop offset="1" style="stop-color:rgb(0%,30.980393%,72.549021%);stop-opacity:1;"/>
</linearGradient>
</defs>
<g id="surface76023684">
<path style=" stroke:none;fill-rule:nonzero;fill:url(#linear0);" d="M 49.140625 19.726562 C 47.671875 19.726562 46.484375 20.917969 46.484375 22.382812 C 46.484375 23.851562 47.671875 25.039062 49.140625 25.039062 C 50.609375 25.039062 51.796875 23.851562 51.796875 22.382812 C 51.796875 20.917969 50.609375 19.726562 49.140625 19.726562 Z M 49.140625 19.726562 "/>
<path style=" stroke:none;fill-rule:nonzero;fill:url(#linear1);" d="M 35.859375 19.726562 C 34.390625 19.726562 33.203125 20.917969 33.203125 22.382812 C 33.203125 23.851562 34.390625 25.039062 35.859375 25.039062 C 37.328125 25.039062 38.515625 23.851562 38.515625 22.382812 C 38.515625 20.917969 37.328125 19.726562 35.859375 19.726562 Z M 35.859375 19.726562 "/>
<path style=" stroke:none;fill-rule:nonzero;fill:url(#linear2);" d="M 65.078125 29.21875 L 62.355469 29.21875 C 61.980469 23.25 59.09375 18.078125 54.699219 14.71875 L 59.375 10.039062 L 57.5 8.164062 L 52.441406 13.21875 C 49.53125 11.570312 46.148438 10.625 42.5 10.625 C 38.851562 10.625 35.46875 11.570312 32.558594 13.21875 L 27.5 8.164062 L 25.625 10.039062 L 30.300781 14.71875 C 25.90625 18.078125 23.023438 23.25 22.644531 29.21875 L 19.921875 29.21875 C 16.941406 29.21875 14.609375 31.464844 14.609375 34.335938 L 14.609375 51.601562 C 14.609375 54.53125 16.992188 56.914062 19.921875 56.914062 C 20.894531 56.914062 21.25 56.632812 22.578125 56.175781 L 22.578125 58.242188 C 22.578125 61.480469 25.234375 64.28125 27.890625 64.933594 L 27.890625 71.523438 C 27.890625 74.453125 30.273438 76.835938 33.203125 76.835938 C 36.132812 76.835938 38.515625 74.453125 38.515625 71.523438 L 38.515625 65.078125 L 46.484375 65.078125 L 46.484375 71.523438 C 46.484375 74.453125 48.867188 76.835938 51.796875 76.835938 C 54.726562 76.835938 57.109375 74.453125 57.109375 71.523438 L 57.109375 64.933594 C 59.765625 64.28125 62.421875 61.484375 62.421875 58.242188 L 62.421875 56.175781 C 63.75 56.632812 64.105469 56.914062 65.078125 56.914062 C 68.007812 56.914062 70.390625 54.53125 70.390625 51.601562 L 70.390625 34.335938 C 70.390625 31.464844 68.058594 29.21875 65.078125 29.21875 Z M 42.5 13.28125 C 51.734375 13.28125 59.058594 20.179688 59.71875 29.21875 L 25.28125 29.21875 C 25.941406 20.179688 33.265625 13.28125 42.5 13.28125 Z M 19.921875 54.257812 C 18.457031 54.257812 17.265625 53.066406 17.265625 51.601562 L 17.265625 34.335938 C 17.265625 32.933594 18.40625 31.875 19.921875 31.875 L 22.578125 31.875 L 22.578125 51.601562 C 22.578125 53.066406 21.386719 54.257812 19.921875 54.257812 Z M 35.859375 71.523438 C 35.859375 72.988281 34.667969 74.179688 33.203125 74.179688 C 31.738281 74.179688 30.546875 72.988281 30.546875 71.523438 L 30.546875 65.078125 L 35.859375 65.078125 Z M 51.796875 74.179688 C 50.332031 74.179688 49.140625 72.988281 49.140625 71.523438 L 49.140625 65.078125 L 54.453125 65.078125 L 54.453125 71.523438 C 54.453125 72.988281 53.261719 74.179688 51.796875 74.179688 Z M 59.765625 58.242188 C 59.765625 60.507812 57.941406 62.421875 55.78125 62.421875 L 29.21875 62.421875 C 27.058594 62.421875 25.234375 60.507812 25.234375 58.242188 L 25.234375 31.875 L 59.765625 31.875 Z M 67.734375 51.601562 C 67.734375 53.066406 66.542969 54.257812 65.078125 54.257812 C 63.613281 54.257812 62.421875 53.066406 62.421875 51.601562 L 62.421875 31.875 L 65.078125 31.875 C 66.59375 31.875 67.734375 32.933594 67.734375 34.335938 Z M 67.734375 51.601562 "/>
</g>
</svg>
